<mxfile host="app.diagrams.net" agent="Mozilla/5.0 (Windows NT 10.0; Win64; x64; rv:135.0) Gecko/20100101 Firefox/135.0" version="26.1.0">
  <diagram name="Page-1" id="0ZIZALWaVEUSAzddZRZz">
    <mxGraphModel dx="2074" dy="1142" grid="1" gridSize="10" guides="0" tooltips="1" connect="1" arrows="1" fold="1" page="0" pageScale="1" pageWidth="850" pageHeight="1100" background="none" math="0" shadow="0">
      <root>
        <mxCell id="0" />
        <mxCell id="1" style="" parent="0" />
        <mxCell id="WanJGlGqupo2dvVW9Myn-27" value="" style="rounded=0;whiteSpace=wrap;html=1;strokeWidth=2;fontStyle=1;strokeColor=none;" parent="1" vertex="1">
          <mxGeometry width="680" height="680" as="geometry" />
        </mxCell>
        <mxCell id="0nyHiz9kPpW8z09HGJ4j-10" value="Ubuntu Computer" style="rounded=0;whiteSpace=wrap;html=1;verticalAlign=top;align=center;strokeWidth=2;fontStyle=1;fillColor=#dae8fc;strokeColor=#6c8ebf;" parent="1" vertex="1">
          <mxGeometry x="20" y="80" width="380" height="520" as="geometry" />
        </mxCell>
        <mxCell id="0nyHiz9kPpW8z09HGJ4j-15" value="VS Code" style="rounded=0;whiteSpace=wrap;html=1;verticalAlign=top;strokeWidth=2;fontStyle=1;fillColor=#d5e8d4;strokeColor=#82b366;" parent="1" vertex="1">
          <mxGeometry x="40" y="120" width="160" height="460" as="geometry" />
        </mxCell>
        <mxCell id="0nyHiz9kPpW8z09HGJ4j-49" value="&lt;div&gt;ESP32-C6&lt;/div&gt;&lt;div&gt;Project&lt;/div&gt;" style="rounded=0;whiteSpace=wrap;html=1;align=center;verticalAlign=top;spacing=2;strokeWidth=2;fontStyle=1;fillColor=#fff2cc;strokeColor=#d6b656;" parent="1" vertex="1">
          <mxGeometry x="60" y="160" width="120" height="200" as="geometry" />
        </mxCell>
        <mxCell id="0nyHiz9kPpW8z09HGJ4j-50" value="&lt;div&gt;GUI&lt;/div&gt;&lt;div&gt;Project&lt;/div&gt;" style="rounded=0;whiteSpace=wrap;html=1;align=center;verticalAlign=top;spacing=2;strokeWidth=2;fontStyle=1;fillColor=#fff2cc;strokeColor=#d6b656;" parent="1" vertex="1">
          <mxGeometry x="60" y="400" width="120" height="160" as="geometry" />
        </mxCell>
        <mxCell id="0nyHiz9kPpW8z09HGJ4j-53" value="&lt;div&gt;ESP-IDF&lt;/div&gt;&lt;div&gt;Extension&lt;/div&gt;" style="rounded=0;whiteSpace=wrap;html=1;strokeWidth=2;fontStyle=1;fillColor=#ffe6cc;strokeColor=#d79b00;" parent="1" vertex="1">
          <mxGeometry x="80" y="220" width="80" height="40" as="geometry" />
        </mxCell>
        <mxCell id="0nyHiz9kPpW8z09HGJ4j-57" value="C" style="rounded=0;whiteSpace=wrap;html=1;strokeWidth=2;fontStyle=1;fillColor=#ffe6cc;strokeColor=#d79b00;" parent="1" vertex="1">
          <mxGeometry x="80" y="260" width="80" height="40" as="geometry" />
        </mxCell>
        <mxCell id="0nyHiz9kPpW8z09HGJ4j-58" value="Python" style="rounded=0;whiteSpace=wrap;html=1;strokeWidth=2;fontStyle=1;fillColor=#ffe6cc;strokeColor=#d79b00;" parent="1" vertex="1">
          <mxGeometry x="80" y="460" width="80" height="40" as="geometry" />
        </mxCell>
        <mxCell id="0nyHiz9kPpW8z09HGJ4j-59" value="FreeRTOS" style="rounded=0;whiteSpace=wrap;html=1;strokeWidth=2;fontStyle=1;fillColor=#ffe6cc;strokeColor=#d79b00;" parent="1" vertex="1">
          <mxGeometry x="80" y="300" width="80" height="40" as="geometry" />
        </mxCell>
        <mxCell id="WanJGlGqupo2dvVW9Myn-25" value="" style="verticalLabelPosition=bottom;html=1;verticalAlign=top;align=center;strokeColor=none;fillColor=#000000;shape=mxgraph.azure.laptop;pointerEvents=1;" parent="1" vertex="1">
          <mxGeometry x="310" y="90" width="80" height="60" as="geometry" />
        </mxCell>
        <mxCell id="H19fAKJrggn6Rdap3DdY-1" value="PyQt6" style="rounded=0;whiteSpace=wrap;html=1;strokeWidth=2;fontStyle=1;fillColor=#ffe6cc;strokeColor=#d79b00;" parent="1" vertex="1">
          <mxGeometry x="80" y="500" width="80" height="40" as="geometry" />
        </mxCell>
        <mxCell id="0nyHiz9kPpW8z09HGJ4j-3" value="&lt;div&gt;GUI&lt;/div&gt;&lt;div&gt;Application&lt;/div&gt;" style="rounded=0;whiteSpace=wrap;html=1;align=center;verticalAlign=middle;spacing=2;strokeWidth=2;fontStyle=1;fillColor=#fff2cc;strokeColor=#d6b656;" parent="1" vertex="1">
          <mxGeometry x="260" y="440" width="80" height="80" as="geometry" />
        </mxCell>
        <mxCell id="0nyHiz9kPpW8z09HGJ4j-5" value="" style="rounded=0;whiteSpace=wrap;html=1;verticalAlign=middle;strokeWidth=2;fontStyle=1;fillColor=#fff2cc;strokeColor=#d6b656;" parent="1" vertex="1">
          <mxGeometry x="580" y="200" width="80" height="80" as="geometry" />
        </mxCell>
        <mxCell id="0nyHiz9kPpW8z09HGJ4j-22" value="&lt;div&gt;ESP32-C6&lt;/div&gt;&lt;div&gt;Application&lt;/div&gt;" style="rounded=0;whiteSpace=wrap;html=1;align=center;verticalAlign=middle;spacing=2;strokeWidth=2;fontStyle=1;fillColor=#fff2cc;strokeColor=#d6b656;" parent="1" vertex="1">
          <mxGeometry x="260" y="200" width="80" height="80" as="geometry" />
        </mxCell>
        <mxCell id="0nyHiz9kPpW8z09HGJ4j-85" value="&lt;div&gt;User&lt;/div&gt;" style="rounded=0;whiteSpace=wrap;html=1;verticalAlign=top;strokeWidth=2;fontStyle=1;fillColor=#fff2cc;strokeColor=#d6b656;" parent="1" vertex="1">
          <mxGeometry x="460" y="440" width="80" height="120" as="geometry" />
        </mxCell>
        <mxCell id="0nyHiz9kPpW8z09HGJ4j-84" value="" style="shape=umlActor;verticalLabelPosition=bottom;verticalAlign=top;html=1;outlineConnect=0;strokeWidth=2;fontStyle=1" parent="1" vertex="1">
          <mxGeometry x="480" y="470" width="40" height="80" as="geometry" />
        </mxCell>
        <mxCell id="0nyHiz9kPpW8z09HGJ4j-23" value="&lt;div&gt;Build&lt;/div&gt;" style="html=1;shadow=0;dashed=0;align=center;verticalAlign=middle;shape=mxgraph.arrows2.arrow;dy=0.67;dx=40;notch=0;strokeWidth=2;fontStyle=1;fillColor=#f8cecc;strokeColor=#b85450;" parent="1" vertex="1">
          <mxGeometry x="180" y="210" width="80" height="60" as="geometry" />
        </mxCell>
        <mxCell id="0nyHiz9kPpW8z09HGJ4j-72" value="&lt;div&gt;Build&lt;/div&gt;" style="html=1;shadow=0;dashed=0;align=center;verticalAlign=middle;shape=mxgraph.arrows2.arrow;dy=0.67;dx=40;notch=0;strokeWidth=2;fontStyle=1;fillColor=#f8cecc;strokeColor=#b85450;" parent="1" vertex="1">
          <mxGeometry x="180" y="450" width="80" height="60" as="geometry" />
        </mxCell>
        <mxCell id="0nyHiz9kPpW8z09HGJ4j-79" value="Interaction" style="html=1;shadow=0;dashed=0;align=center;verticalAlign=middle;shape=mxgraph.arrows2.twoWayArrow;dy=0.67;dx=40;strokeWidth=2;fontStyle=1;fillColor=#f8cecc;strokeColor=#b85450;direction=west;" parent="1" vertex="1">
          <mxGeometry x="340" y="450" width="120" height="60" as="geometry" />
        </mxCell>
        <mxCell id="WanJGlGqupo2dvVW9Myn-16" value="" style="sketch=0;outlineConnect=0;dashed=0;verticalLabelPosition=bottom;verticalAlign=top;align=center;html=1;fontSize=12;fontStyle=0;aspect=fixed;pointerEvents=1;shape=mxgraph.aws4.iot_thing_freertos_device;fillColor=#000000;" parent="1" vertex="1">
          <mxGeometry x="580" y="200" width="80" height="80" as="geometry" />
        </mxCell>
        <mxCell id="WanJGlGqupo2dvVW9Myn-18" value="&lt;div&gt;Follower&lt;/div&gt;&lt;div&gt;ESP32-C6&lt;/div&gt;" style="rounded=0;whiteSpace=wrap;html=1;verticalAlign=middle;strokeWidth=2;fontStyle=1;fillColor=#fff2cc;strokeColor=none;fillStyle=auto;" parent="1" vertex="1">
          <mxGeometry x="585" y="205" width="70" height="70" as="geometry" />
        </mxCell>
        <mxCell id="WanJGlGqupo2dvVW9Myn-19" value="" style="rounded=0;whiteSpace=wrap;html=1;verticalAlign=middle;strokeWidth=2;fontStyle=1;fillColor=#fff2cc;strokeColor=#d6b656;" parent="1" vertex="1">
          <mxGeometry x="460" y="320" width="80" height="80" as="geometry" />
        </mxCell>
        <mxCell id="WanJGlGqupo2dvVW9Myn-20" value="" style="sketch=0;outlineConnect=0;dashed=0;verticalLabelPosition=bottom;verticalAlign=top;align=center;html=1;fontSize=12;fontStyle=0;aspect=fixed;pointerEvents=1;shape=mxgraph.aws4.iot_thing_freertos_device;fillColor=#000000;" parent="1" vertex="1">
          <mxGeometry x="460" y="320" width="80" height="80" as="geometry" />
        </mxCell>
        <mxCell id="WanJGlGqupo2dvVW9Myn-21" value="&lt;div&gt;Leader&lt;/div&gt;&lt;div&gt;ESP32-C6&lt;/div&gt;" style="rounded=0;whiteSpace=wrap;html=1;verticalAlign=middle;strokeWidth=2;fontStyle=1;fillColor=#fff2cc;strokeColor=none;fillStyle=auto;" parent="1" vertex="1">
          <mxGeometry x="465" y="325" width="70" height="70" as="geometry" />
        </mxCell>
        <mxCell id="0nyHiz9kPpW8z09HGJ4j-45" value="" style="html=1;shadow=0;dashed=0;align=center;verticalAlign=middle;shape=mxgraph.arrows2.arrow;dy=0.67;dx=40;notch=0;direction=north;strokeWidth=2;fontStyle=1;fillColor=#f8cecc;strokeColor=#b85450;" parent="1" vertex="1">
          <mxGeometry x="590" y="280" width="60" height="90" as="geometry" />
        </mxCell>
        <mxCell id="0nyHiz9kPpW8z09HGJ4j-75" value="Zigbee" style="html=1;shadow=0;dashed=0;align=center;verticalAlign=middle;shape=mxgraph.arrows2.arrow;dy=0.67;dx=40;notch=0;direction=west;strokeWidth=2;fontStyle=1;fillColor=#f8cecc;strokeColor=#b85450;" parent="1" vertex="1">
          <mxGeometry x="540" y="330" width="90" height="60" as="geometry" />
        </mxCell>
        <mxCell id="0nyHiz9kPpW8z09HGJ4j-48" value="" style="rounded=0;whiteSpace=wrap;html=1;strokeWidth=2;fontStyle=1;strokeColor=none;fillColor=#f8cecc;" parent="1" vertex="1">
          <mxGeometry x="611" y="348" width="18" height="4" as="geometry" />
        </mxCell>
        <mxCell id="0nyHiz9kPpW8z09HGJ4j-29" value="" style="html=1;shadow=0;dashed=0;align=center;verticalAlign=middle;shape=mxgraph.arrows2.arrow;dy=0.67;dx=40;notch=0;direction=south;strokeWidth=2;fontStyle=1;fillColor=#f8cecc;strokeColor=#b85450;" parent="1" vertex="1">
          <mxGeometry x="470" y="250" width="60" height="70" as="geometry" />
        </mxCell>
        <mxCell id="0nyHiz9kPpW8z09HGJ4j-27" value="&lt;div&gt;Upload&lt;/div&gt;" style="html=1;shadow=0;dashed=0;align=center;verticalAlign=middle;shape=mxgraph.arrows2.arrow;dy=0.67;dx=40;notch=0;strokeWidth=2;fontStyle=1;fillColor=#f8cecc;strokeColor=#b85450;" parent="1" vertex="1">
          <mxGeometry x="340" y="210" width="240" height="60" as="geometry" />
        </mxCell>
        <mxCell id="0nyHiz9kPpW8z09HGJ4j-41" value="" style="rounded=0;whiteSpace=wrap;html=1;strokeColor=none;strokeWidth=2;fontStyle=1;fillColor=#f8cecc;" parent="1" vertex="1">
          <mxGeometry x="491" y="248" width="18" height="4" as="geometry" />
        </mxCell>
        <mxCell id="WanJGlGqupo2dvVW9Myn-6" value="UART" style="html=1;shadow=0;dashed=0;align=center;verticalAlign=middle;shape=mxgraph.arrows2.arrow;dy=0.67;dx=40;notch=0;direction=east;strokeWidth=2;fontStyle=1;fillColor=#f8cecc;strokeColor=#b85450;" parent="1" vertex="1">
          <mxGeometry x="290" y="330" width="170" height="60" as="geometry" />
        </mxCell>
        <mxCell id="WanJGlGqupo2dvVW9Myn-7" value="" style="html=1;shadow=0;dashed=0;align=center;verticalAlign=middle;shape=mxgraph.arrows2.arrow;dy=0.67;dx=40;notch=0;direction=south;strokeWidth=2;fontStyle=1;fillColor=#f8cecc;strokeColor=#b85450;" parent="1" vertex="1">
          <mxGeometry x="270" y="350" width="60" height="90" as="geometry" />
        </mxCell>
        <mxCell id="WanJGlGqupo2dvVW9Myn-8" value="" style="rounded=0;whiteSpace=wrap;html=1;strokeWidth=2;fontStyle=1;strokeColor=none;fillColor=#f8cecc;direction=south;" parent="1" vertex="1">
          <mxGeometry x="308" y="351" width="4" height="18" as="geometry" />
        </mxCell>
        <mxCell id="LDbLN7gWwUfxWcHXtKPE-1" value="Made using diagrams.net: https://app.diagrams.net" style="text;html=1;align=center;verticalAlign=middle;whiteSpace=wrap;rounded=0;fontStyle=1" vertex="1" parent="1">
          <mxGeometry y="620" width="680" height="40" as="geometry" />
        </mxCell>
      </root>
    </mxGraphModel>
  </diagram>
</mxfile>
